<?xml version="1.0" standalone="no"?>
<!DOCTYPE svg PUBLIC "-//W3C//DTD SVG 20010904//EN"
 "http://www.w3.org/TR/2001/REC-SVG-20010904/DTD/svg10.dtd">
<svg version="1.0" xmlns="http://www.w3.org/2000/svg"
 width="300.000000pt" height="300.000000pt" viewBox="0 0 300.000000 300.000000"
 preserveAspectRatio="xMidYMid meet">
<metadata>
Created by potrace 1.11, written by Peter Selinger 2001-2013
</metadata>
<g transform="translate(0.000000,300.000000) scale(0.100000,-0.100000)"
fill="#000000" stroke="none">
<path d="M185 2988 c-82 -29 -153 -103 -175 -183 -8 -28 -10 -410 -8 -1325 l3
-1285 23 -45 c32 -60 63 -92 120 -121 l47 -24 1305 0 1305 0 47 24 c57 29 88
61 120 121 l23 45 0 1305 0 1305 -24 47 c-29 57 -61 88 -121 120 l-45 23
-1295 2 c-895 1 -1304 -2 -1325 -9z m1702 -644 c53 -39 54 -49 43 -326 -33
-792 -64 -968 -200 -1106 -200 -203 -533 -143 -665 120 -19 39 -35 82 -35 95
0 37 51 83 92 83 39 0 60 -19 102 -94 83 -144 178 -183 253 -103 39 40 58 79
80 159 16 56 18 119 18 584 0 508 1 522 20 544 43 48 108 70 197 67 50 -2 75
-8 95 -23z"/>
<path d="M1750 2315 c0 -2 17 -13 39 -24 21 -11 52 -32 70 -46 20 -17 31 -22
31 -13 0 22 -29 57 -60 73 -27 14 -80 21 -80 10z"/>
</g>
</svg>
